<svg xmlns="http://www.w3.org/2000/svg" viewBox="0 0 3000 100" preserveAspectRatio="xMidYMid" width="3000" height="100" xmlns:xlink="http://www.w3.org/1999/xlink" style="shape-rendering:auto;display:block;background-position-x:0%;background-position-y:0%;background-size:auto;background-origin:padding-box;background-clip:border-box;fill:rgb(0, 0, 0);stroke:none;transform:none;opacity:1;background:scroll rgba(0, 0, 0, 0) none  repeat;width:3000px;height:100px;;animation:none"><g style="fill:rgb(0, 0, 0);stroke:none;transform:none;opacity:1;;animation:none"><linearGradient y2="0" y1="0" x2="1" x1="0" id="lg-aosk318wnxm" style="fill:rgb(0, 0, 0);stroke:none;transform:none;opacity:1;;animation:none"><stop offset="0" stop-color="#1bb1e6" style="fill:rgb(0, 0, 0);stroke:none;transform:none;opacity:1;;animation:none"></stop>

  
<stop offset="1" stop-color="#1bb1e6" style="fill:rgb(0, 0, 0);stroke:none;transform:none;opacity:1;;animation:none"></stop></linearGradient>
<path opacity="0.38" fill="url(#lg-aosk318wnxm)" d="M 0 0 L 0 49.55 Q 75 88.07 150 51.08 T 300 38.39 T 450 36.28 T 600 51.81 T 750 41.36 T 900 50.66 T 1050 36.86 T 1200 41.74 T 1350 47.33 T 1500 51.27 T 1650 38.84 T 1800 41.77 T 1950 53.35 T 2100 42.78 T 2250 37.07 T 2400 48.59 T 2550 36.49 T 2700 37.29 T 2850 49.77 T 3000 41.38 L 3000 0 Z" style="fill:url('#lg-aosk318wnxm');stroke:none;transform:none;opacity:0.38;;animation:none"></path>
<path opacity="0.38" fill="url(#lg-aosk318wnxm)" d="M 0 0 L 0 50.76 Q 75 76.66 150 37.16 T 300 49.58 T 450 38.78 T 600 53.71 T 750 50.82 T 900 37.23 T 1050 50.65 T 1200 46.24 T 1350 46.76 T 1500 41.26 T 1650 48.68 T 1800 44.4 T 1950 39.05 T 2100 39.92 T 2250 51.43 T 2400 41.97 T 2550 39.12 T 2700 39.68 T 2850 37.83 T 3000 50.93 L 3000 0 Z" style="fill:url('#lg-aosk318wnxm');stroke:none;transform:none;opacity:0.38;;animation:none"></path>
<path opacity="0.38" fill="url(#lg-aosk318wnxm)" d="M 0 0 L 0 51.84 Q 75 77.33 150 53.07 T 300 38.4 T 450 53.76 T 600 41.13 T 750 41.67 T 900 37.72 T 1050 43.38 T 1200 50.45 T 1350 39.31 T 1500 50.28 T 1650 44.63 T 1800 41.44 T 1950 36.62 T 2100 42.02 T 2250 43.01 T 2400 43.68 T 2550 44.53 T 2700 52.98 T 2850 44.06 T 3000 42.37 L 3000 0 Z" style="fill:url('#lg-aosk318wnxm');stroke:none;transform:none;opacity:0.38;;animation:none"></path>
<g style="fill:rgb(0, 0, 0);stroke:none;transform:none;opacity:1;;animation:none"></g></g><!-- [ldio] generated by https://loading.io --></svg>